<?xml version="1.0" encoding="UTF-8" standalone="no"?>
<!-- Created with Inkscape (http://www.inkscape.org/) -->

<svg
   xmlns:dc="http://purl.org/dc/elements/1.1/"
   xmlns:cc="http://creativecommons.org/ns#"
   xmlns:rdf="http://www.w3.org/1999/02/22-rdf-syntax-ns#"
   xmlns:svg="http://www.w3.org/2000/svg"
   xmlns="http://www.w3.org/2000/svg"
   xmlns:sodipodi="http://sodipodi.sourceforge.net/DTD/sodipodi-0.dtd"
   xmlns:inkscape="http://www.inkscape.org/namespaces/inkscape"
   width="71.891487mm"
   height="71.891487mm"
   viewBox="0 0 71.89149 71.891487"
   version="1.1"
   id="svg8"
   inkscape:version="0.92.3 (2405546, 2018-03-11)"
   sodipodi:docname="favicon.svg">
  <defs
     id="defs2" />
  <sodipodi:namedview
     id="base"
     pagecolor="#ffffff"
     bordercolor="#666666"
     borderopacity="1.0"
     inkscape:pageopacity="0.0"
     inkscape:pageshadow="2"
     inkscape:zoom="1.4"
     inkscape:cx="45.651329"
     inkscape:cy="91.971132"
     inkscape:document-units="mm"
     inkscape:current-layer="layer1"
     showgrid="false"
     inkscape:pagecheckerboard="true"
     fit-margin-top="0"
     fit-margin-left="0"
     fit-margin-right="0"
     fit-margin-bottom="0"
     inkscape:window-width="1600"
     inkscape:window-height="876"
     inkscape:window-x="0"
     inkscape:window-y="0"
     inkscape:window-maximized="1" />
  <metadata
     id="metadata5">
    <rdf:RDF>
      <cc:Work
         rdf:about="">
        <dc:format>image/svg+xml</dc:format>
        <dc:type
           rdf:resource="http://purl.org/dc/dcmitype/StillImage" />
        <dc:title></dc:title>
      </cc:Work>
    </rdf:RDF>
  </metadata>
  <g
     inkscape:label="Calque 1"
     inkscape:groupmode="layer"
     id="layer1"
     transform="translate(-66.858469,-134.03991)">
    <g
       id="g945"
       transform="matrix(-1,0,0,1,208.63223,-6.8035714)">
      <rect
         rx="4.99999"
         y="140.97598"
         x="70.014778"
         height="71.626488"
         width="71.626488"
         id="rect934"
         style="fill:#ffffff;fill-opacity:1;stroke:#000000;stroke-width:0.26499999;stroke-miterlimit:4;stroke-dasharray:none;stroke-opacity:0.31937172" />
      <g
         transform="matrix(1.2609025,0,0,1.2609025,102.34084,-9.3308213)"
         id="g910">
        <path
           inkscape:connector-curvature="0"
           id="path924"
           d="m -0.8459119,172.76775 c -6.5514564,-1.1861 -12.8913841,-5.34572 -16.4900791,-10.81915 -1.730485,-2.63198 -3.41668,-7.53841 -3.868882,-11.25754 -0.919366,-7.56131 1.755012,-15.31269 7.127653,-20.6587 5.2810605,-5.25488 11.4621611,-7.64452 18.9219082,-7.3153 3.8936824,0.17184 6.5597458,0.8324 9.8154778,2.43194 2.407423,1.18276 5.321345,3.26987 5.607929,4.01669 0.106074,0.27642 -0.85045,1.41973 -2.99057,3.57453 -1.730589,1.74246 -3.359266,3.28582 -3.619283,3.4297 -0.368326,0.2038 -0.698719,0.0826 -1.495644,-0.54855 -2.9177381,-2.31089 -7.251584,-3.3331 -10.9392433,-2.58021 -5.0372301,1.02843 -8.5071823,3.7529 -10.8545244,8.52252 -1.0526543,2.13891 -1.5055393,4.00872 -1.5055393,6.21587 0,1.8301 0.452631,4.19766 0.910497,4.7625 0.176941,0.21828 0.6574718,1.09975 1.0678458,1.95883 0.9238139,1.9339 3.8765163,5.09591 5.6702167,6.07217 4.47945135,2.43802 9.3784393,2.59741 13.9584955,0.45414 2.254483,-1.055 4.400146,-3.12381 5.389198,-5.19619 1.401207,-2.93596 1.802458,-2.73954 -5.76344,-2.82131 l -6.5484377,-0.0708 v -5.02708 -5.02708 l 11.8293407,-0.0689 11.829341,-0.0689 0.335775,0.59803 c 0.234148,0.41704 0.334417,1.91931 0.331298,4.96366 -0.0048,4.72445 -0.42355,7.15772 -1.825276,10.60739 -1.746255,4.29756 -5.417018,8.60258 -9.276141,10.87892 -4.948348,2.91883 -11.6601316,4.05133 -17.6179159,2.97272 z"
           style="fill:#afd6ec;stroke-width:0.26458332" />
        <path
           inkscape:connector-curvature="0"
           id="path922"
           d="m -2.3013875,172.00145 c -10.2924265,-2.66088 -17.7429975,-11.15562 -18.9285155,-21.58128 -0.925126,-8.13572 2.524008,-16.70615 8.831293,-21.94403 2.326507,-1.93205 6.9336843,-4.30737 9.8608597,-5.08396 2.88955688,-0.7666 8.8560222,-0.83479 11.8374477,-0.13528 3.7476056,0.87928 7.6482046,2.79253 9.9957596,4.90295 l 1.185543,1.06579 -3.571875,3.58383 -3.571875,3.58383 -1.684362,-1.17469 c -2.5364384,-1.76894 -4.5986961,-2.38244 -7.97293,-2.37184 -3.33060146,0.0105 -5.2701375,0.59387 -7.9970895,2.4055 -2.3375434,1.55293 -3.9738802,3.44633 -5.2242693,6.04499 -1.6032752,3.33206 -1.9980662,6.45543 -1.2290352,9.72344 0.196904,0.83674 0.308079,1.52135 0.247056,1.52135 -0.06102,0 0.39453,0.9716 1.0123401,2.15911 2.0083939,3.86039 5.8901039,6.9953 9.75141457,7.87534 1.58556063,0.36138 5.45363403,0.35594 7.19687303,-0.0101 2.3584641,-0.49524 4.9677113,-1.86721 6.5336503,-3.43546 1.554027,-1.55632 3.305574,-4.79774 3.157439,-5.84317 l -0.08692,-0.61343 -6.614583,-0.13229 -6.6145833,-0.13229 v -4.49792 -4.49792 l 11.5827543,-0.0689 c 10.846134,-0.0645 11.594918,-0.0393 11.773959,0.39688 0.105161,0.25619 0.18212,2.48987 0.171016,4.96372 -0.01675,3.72935 -0.11652,4.84794 -0.583957,6.54636 -1.267695,4.60615 -2.712088,7.26897 -5.613564,10.34895 -4.595035,4.87773 -10.051449,7.06455 -17.5569457,7.03647 -2.76240607,-0.0103 -3.97286159,-0.14109 -5.8868998,-0.63592 z"
           style="fill:#fbba0a;stroke-width:0.26458332" />
        <path
           inkscape:connector-curvature="0"
           id="path920"
           d="m -2.3013875,172.00145 c -4.5630465,-1.17967 -8.3416015,-3.32429 -11.6424045,-6.60793 -1.663788,-1.65514 -4.60125,-5.65567 -4.60125,-6.26645 0,-0.19997 7.42858,-6.08856 7.888365,-6.25305 0.09979,-0.0357 0.647626,0.84311 1.2174265,1.95291 1.9019467,3.70444 5.870022,6.88131 9.67962517,7.74957 1.58556063,0.36138 5.45363403,0.35594 7.19687303,-0.0101 2.3584641,-0.49524 4.9677113,-1.86721 6.5336503,-3.43546 1.554027,-1.55632 3.305574,-4.79774 3.157439,-5.84317 l -0.08692,-0.61343 -6.614583,-0.13229 -6.6145833,-0.13229 v -4.49792 -4.49792 l 11.5827543,-0.0689 c 10.846134,-0.0645 11.594918,-0.0393 11.773959,0.39688 0.105161,0.25619 0.18212,2.48987 0.171016,4.96372 -0.01675,3.72935 -0.11652,4.84794 -0.583957,6.54636 -1.267695,4.60615 -2.712088,7.26897 -5.613564,10.34895 -4.595035,4.87773 -10.051449,7.06455 -17.5569457,7.03647 -2.76240607,-0.0103 -3.97286159,-0.14109 -5.8868998,-0.63592 z m -12.3196025,-32.24253 -4.145739,-3.22416 0.804816,-1.45521 c 1.210859,-2.18939 3.462714,-4.85871 5.587552,-6.62342 2.301694,-1.9116 6.9241408,-4.29126 9.8366107,-5.06395 2.88955688,-0.7666 8.8560222,-0.83479 11.8374477,-0.13528 3.7476056,0.87928 7.6482046,2.79253 9.9957596,4.90295 l 1.185543,1.06579 -3.571875,3.58383 -3.571875,3.58383 -1.684362,-1.17469 c -2.5364384,-1.76894 -4.5986961,-2.38244 -7.97293,-2.37184 -3.33060146,0.0105 -5.2701375,0.59387 -7.9970895,2.4055 -2.2580705,1.50013 -3.9400083,3.40868 -5.1523635,5.84655 -0.524665,1.05503 -0.965596,1.91059 -0.979846,1.90125 -0.01425,-0.009 -1.891492,-1.46786 -4.171649,-3.24115 z"
           style="fill:#fd6457;stroke-width:0.26458332" />
        <path
           inkscape:connector-curvature="0"
           id="path918"
           d="m -2.3013875,172.00145 c -4.5630465,-1.17967 -8.3416015,-3.32429 -11.6424045,-6.60793 -1.663788,-1.65514 -4.60125,-5.65567 -4.60125,-6.26645 0,-0.19997 7.42858,-6.08856 7.888365,-6.25305 0.09979,-0.0357 0.647626,0.84311 1.2174265,1.95291 1.9019467,3.70444 5.870022,6.88131 9.67962517,7.74957 1.58556063,0.36138 5.45363403,0.35594 7.19687303,-0.0101 2.3584641,-0.49524 4.9677113,-1.86721 6.5336503,-3.43546 1.554027,-1.55632 3.305574,-4.79774 3.157439,-5.84317 l -0.08692,-0.61343 -6.614583,-0.13229 -6.6145833,-0.13229 v -4.49792 -4.49792 l 11.5827543,-0.0689 c 10.846134,-0.0645 11.594918,-0.0393 11.773959,0.39688 0.105161,0.25619 0.18212,2.48987 0.171016,4.96372 -0.01675,3.72935 -0.11652,4.84794 -0.583957,6.54636 -1.267695,4.60615 -2.712088,7.26897 -5.613564,10.34895 -4.595035,4.87773 -10.051449,7.06455 -17.5569457,7.03647 -2.76240607,-0.0103 -3.97286159,-0.14109 -5.8868998,-0.63592 z M -14.521031,139.79278 c -2.067686,-1.59733 -3.759428,-3.02252 -3.759428,-3.16709 0,-0.56357 2.521281,-4.11931 4.063939,-5.73133 2.904644,-3.03525 5.8039058,-4.95987 9.4298113,-6.25978 5.8268077,-2.08896 12.4732706,-1.94455 18.0883457,0.39301 1.908677,0.79458 6.253382,3.56985 6.433211,4.10934 0.04767,0.14302 -1.373444,1.71666 -3.158043,3.49697 l -3.24472,3.23693 -1.242669,-0.8835 c -4.5805244,-3.25664 -10.1013996,-3.58183 -15.4070839,-0.90752 -2.3155222,1.16713 -5.3697161,4.31182 -6.533143,6.72671 l -0.9107931,1.8905 z"
           style="fill:#0b8af2;stroke-width:0.26458332" />
        <path
           inkscape:connector-curvature="0"
           id="path916"
           d="m -2.3013875,172.01476 c -4.6001807,-1.21468 -8.3530975,-3.34903 -11.6424045,-6.62124 -1.663788,-1.65514 -4.60125,-5.65567 -4.60125,-6.26645 0,-0.19997 7.42858,-6.08856 7.888365,-6.25305 0.09979,-0.0357 0.647626,0.84311 1.2174265,1.95291 1.3977541,2.72243 3.8995932,5.21871 6.5264903,6.51201 2.46555157,1.21386 3.75226266,1.50726 6.6458412,1.51539 2.8007416,0.008 4.5667692,-0.34365 6.813532,-1.35622 0.939006,-0.42318 1.831975,-0.71853 1.984375,-0.65632 0.867793,0.35424 7.156262,5.56332 7.156262,5.92792 0,0.61385 -2.269691,2.28124 -4.776783,3.50917 -3.456336,1.69286 -5.6743331,2.1711 -10.5690507,2.27888 -3.8055682,0.0838 -4.47680288,0.0289 -6.6428038,-0.543 z M -14.521031,139.79278 c -2.067686,-1.59733 -3.759428,-3.02252 -3.759428,-3.16709 0,-0.56357 2.521281,-4.11931 4.063939,-5.73133 2.904644,-3.03525 5.8039058,-4.95987 9.4298113,-6.25978 5.8268077,-2.08896 12.4732706,-1.94455 18.0883457,0.39301 1.908677,0.79458 6.253382,3.56985 6.433211,4.10934 0.04767,0.14302 -1.373444,1.71666 -3.158043,3.49697 l -3.24472,3.23693 -1.242669,-0.8835 c -4.5805244,-3.25664 -10.1013996,-3.58183 -15.4070839,-0.90752 -2.3155222,1.16713 -5.3697161,4.31182 -6.533143,6.72671 l -0.9107931,1.8905 z"
           style="fill:#fd4930;stroke-width:0.26458332" />
        <path
           inkscape:connector-curvature="0"
           id="path914"
           d="m -2.3013875,172.01476 c -4.6001807,-1.21468 -8.3530975,-3.34903 -11.6424045,-6.62124 -1.663788,-1.65514 -4.60125,-5.65567 -4.60125,-6.26645 0,-0.19997 7.42858,-6.08856 7.888365,-6.25305 0.09979,-0.0357 0.647626,0.84311 1.2174265,1.95291 1.3977541,2.72243 3.8995932,5.21871 6.5264903,6.51201 2.46555157,1.21386 3.75226266,1.50726 6.6458412,1.51539 2.8007416,0.008 4.5667692,-0.34365 6.813532,-1.35622 0.939006,-0.42318 1.831975,-0.71853 1.984375,-0.65632 0.867793,0.35424 7.156262,5.56332 7.156262,5.92792 0,0.61385 -2.269691,2.28124 -4.776783,3.50917 -3.456336,1.69286 -5.6743331,2.1711 -10.5690507,2.27888 -3.8055682,0.0838 -4.47680288,0.0289 -6.6428038,-0.543 z m -9.4530205,-30.6549 c -0.412495,-0.32548 -1.252904,-1.00849 -1.867575,-1.51781 -0.614671,-0.50932 -1.854753,-1.45894 -2.755738,-2.11026 -0.900985,-0.65133 -1.638154,-1.25795 -1.638154,-1.34805 0,-0.51037 2.455925,-3.82788 4.071799,-5.50025 4.4402328,-4.59549 9.2786259,-6.86701 16.1038625,-7.56041 1.76666,-0.17948 5.7136242,0.21893 8.0024635,0.80778 2.233647,0.57465 5.680379,2.23955 7.687754,3.71347 0.937726,0.68852 1.704954,1.32006 1.704954,1.40341 0,0.0833 -1.419331,1.56717 -3.154069,3.29739 l -3.154069,3.14585 -0.852397,-0.71724 c -2.139694,-1.80044 -5.2646582,-2.80625 -8.7039081,-2.80147 -2.6241164,0.004 -4.45872661,0.43526 -6.8777274,1.61807 -2.2853888,1.11747 -5.4494297,4.24329 -6.5943935,6.51473 -0.458454,0.90951 -0.921137,1.65205 -1.028182,1.6501 -0.107046,-0.002 -0.532125,-0.26984 -0.94462,-0.59531 z"
           style="fill:#fd3e2e;stroke-width:0.26458332" />
        <path
           inkscape:connector-curvature="0"
           id="path912"
           d="m -2.3013875,172.01476 c -4.6001807,-1.21468 -8.3530975,-3.34903 -11.6424045,-6.62124 -1.663788,-1.65514 -4.60125,-5.65567 -4.60125,-6.26645 0,-0.19997 7.42858,-6.08856 7.888365,-6.25305 0.09979,-0.0357 0.647626,0.84311 1.2174265,1.95291 1.3977541,2.72243 3.8995932,5.21871 6.5264903,6.51201 2.46555157,1.21386 3.75226266,1.50726 6.6458412,1.51539 2.8007416,0.008 4.5667692,-0.34365 6.813532,-1.35622 0.939006,-0.42318 1.831975,-0.71853 1.984375,-0.65632 0.867793,0.35424 7.156262,5.56332 7.156262,5.92792 0,0.61385 -2.269691,2.28124 -4.776783,3.50917 -3.456336,1.69286 -5.6743331,2.1711 -10.5690507,2.27888 -3.8055682,0.0838 -4.47680288,0.0289 -6.6428038,-0.543 z"
           style="fill:#02a84a;stroke-width:0.26458332" />
      </g>
    </g>
  </g>
</svg>
