<?xml version="1.0" encoding="UTF-8" standalone="no"?>
<!-- Created with Inkscape (http://www.inkscape.org/) -->

<svg
   xmlns:dc="http://purl.org/dc/elements/1.1/"
   xmlns:cc="http://creativecommons.org/ns#"
   xmlns:rdf="http://www.w3.org/1999/02/22-rdf-syntax-ns#"
   xmlns:svg="http://www.w3.org/2000/svg"
   xmlns="http://www.w3.org/2000/svg"
   xmlns:sodipodi="http://sodipodi.sourceforge.net/DTD/sodipodi-0.dtd"
   xmlns:inkscape="http://www.inkscape.org/namespaces/inkscape"
   width="5.4012094mm"
   height="5.714025mm"
   viewBox="0 0 5.4012096 5.714025"
   version="1.1"
   id="svg8"
   inkscape:version="0.92.3 (2405546, 2018-03-11)"
   sodipodi:docname="loupe.svg">
  <defs
     id="defs2" />
  <sodipodi:namedview
     id="base"
     pagecolor="#ffffff"
     bordercolor="#666666"
     borderopacity="1.0"
     inkscape:pageopacity="0.0"
     inkscape:pageshadow="2"
     inkscape:zoom="1.4"
     inkscape:cx="-20.123047"
     inkscape:cy="-148.79256"
     inkscape:document-units="mm"
     inkscape:current-layer="layer1"
     showgrid="false"
     inkscape:pagecheckerboard="true"
     fit-margin-top="0"
     fit-margin-left="0"
     fit-margin-right="0"
     fit-margin-bottom="0"
     inkscape:window-width="1920"
     inkscape:window-height="1146"
     inkscape:window-x="1600"
     inkscape:window-y="0"
     inkscape:window-maximized="1" />
  <metadata
     id="metadata5">
    <rdf:RDF>
      <cc:Work
         rdf:about="">
        <dc:format>image/svg+xml</dc:format>
        <dc:type
           rdf:resource="http://purl.org/dc/dcmitype/StillImage" />
        <dc:title></dc:title>
      </cc:Work>
    </rdf:RDF>
  </metadata>
  <g
     inkscape:label="Calque 1"
     inkscape:groupmode="layer"
     id="layer1"
     transform="translate(-70.748624,-135.75936)">
    <g
       id="g974"
       transform="matrix(0.03993913,0,0,0.04225138,71.492299,131.49201)">
      <path
         style="fill:#d0d0d0;stroke-width:0.26458332"
         d="m 32.623276,206.89009 c 0.181901,-0.0734 0.479558,-0.0734 0.661459,0 0.181901,0.0734 0.03307,0.13346 -0.33073,0.13346 -0.363802,0 -0.51263,-0.0601 -0.330729,-0.13346 z m 2.910417,0 c 0.181901,-0.0734 0.479557,-0.0734 0.661458,0 0.181901,0.0734 0.03307,0.13346 -0.330729,0.13346 -0.363802,0 -0.51263,-0.0601 -0.330729,-0.13346 z M -0.94640846,193.63772 c -0.32910754,-0.41965 -0.31974924,-0.42901 0.0998948,-0.0999 0.25466145,0.19972 0.46302081,0.40808 0.46302081,0.46302 0,0.21777 -0.21727212,0.0776 -0.56291561,-0.36312 z M 60.206087,183.68209 c 0,-0.0549 0.20836,-0.2633 0.463021,-0.46302 0.419645,-0.3291 0.429004,-0.31975 0.0999,0.0999 -0.345643,0.44073 -0.562917,0.58089 -0.562917,0.36312 z m -53.9950221,-1.95062 -0.6414331,-0.72761 0.7276041,0.64144 c 0.6800556,0.59951 0.8489389,0.81377 0.6414331,0.81377 -0.047394,0 -0.3748159,-0.32742 -0.7276041,-0.7276 z m 57.1700221,-1.22438 c 0,-0.0549 0.20836,-0.2633 0.463021,-0.46302 0.419645,-0.3291 0.429003,-0.31975 0.0999,0.0999 -0.345644,0.44073 -0.562917,0.58089 -0.562917,0.36312 z m -81.979053,-22.1251 c 0,-0.3638 0.06005,-0.51263 0.133452,-0.33073 0.0734,0.1819 0.0734,0.47956 0,0.66146 -0.0734,0.1819 -0.133452,0.0331 -0.133452,-0.33073 z m 13.4728614,-2.27101 c 0.012695,-0.30822 0.075391,-0.37091 0.1598525,-0.15985 0.07643,0.191 0.067031,0.4192 -0.020889,0.50712 -0.087919,0.0879 -0.150453,-0.0683 -0.1389645,-0.34727 z m 92.3604656,-0.63941 c 0,-0.3638 0.06006,-0.51263 0.133453,-0.33073 0.0734,0.18191 0.0734,0.47956 0,0.66146 -0.0734,0.1819 -0.133453,0.0331 -0.133453,-0.33073 z m 0,-2.91041 c 0,-0.3638 0.06006,-0.51263 0.133453,-0.33073 0.0734,0.1819 0.0734,0.47956 0,0.66146 -0.0734,0.1819 -0.133453,0.0331 -0.133453,-0.33073 z m -92.3395773,-0.79375 c 0,-0.3638 0.060053,-0.51263 0.1334521,-0.33073 0.073399,0.1819 0.073399,0.47956 0,0.66146 -0.073399,0.1819 -0.1334521,0.0331 -0.1334521,-0.33073 z M -18.618854,149.4964 c 0.0127,-0.30822 0.07539,-0.37092 0.159853,-0.15985 0.07643,0.19099 0.06703,0.4192 -0.02089,0.50712 -0.08792,0.0879 -0.150452,-0.0684 -0.138964,-0.34727 z M 4.6435902,127.85501 c 0,-0.0549 0.2083594,-0.2633 0.4630208,-0.46302 0.419644,-0.3291 0.4290023,-0.31975 0.099895,0.0999 -0.3456435,0.44073 -0.5629156,0.58089 -0.5629158,0.36312 z m 57.5217338,-1.81833 -0.504028,-0.59531 0.595312,0.50403 c 0.559446,0.47366 0.715762,0.68659 0.504029,0.68659 -0.05021,0 -0.318098,-0.26789 -0.595313,-0.59531 z M 7.5540067,124.9446 c 0,-0.0549 0.2083594,-0.2633 0.4630208,-0.46302 0.419645,-0.32911 0.4290034,-0.31975 0.099896,0.0999 -0.3456448,0.44073 -0.5629169,0.58089 -0.5629169,0.36313 z M 73.93067,118.76064 c -0.329107,-0.41965 -0.319749,-0.429 0.0999,-0.0999 0.44073,0.34565 0.580887,0.56292 0.363125,0.56292 -0.05494,0 -0.2633,-0.20836 -0.463021,-0.46302 z m -79.0766627,-0.41352 c 0,-0.0455 0.3869531,-0.43249 0.8598958,-0.8599 l 0.8598958,-0.7771 -0.7771053,0.85989 c -0.7243712,0.80155 -0.9426863,0.98152 -0.9426863,0.77711 z m 2.3812499,-2.38125 c 0,-0.0455 0.3869531,-0.43249 0.8598958,-0.8599 l 0.8598958,-0.7771 -0.7771053,0.85989 c -0.7243712,0.80155 -0.9426863,0.98152 -0.9426863,0.77711 z m 34.5942688,-1.41536 c 0.181901,-0.0734 0.479558,-0.0734 0.661459,0 0.181901,0.0734 0.03307,0.13346 -0.33073,0.13346 -0.363802,0 -0.51263,-0.0601 -0.330729,-0.13346 z m 4.514453,-0.006 c 0.190995,-0.0764 0.419198,-0.067 0.507119,0.0209 0.08792,0.0879 -0.06835,0.15045 -0.347265,0.13897 -0.308227,-0.0127 -0.37092,-0.0754 -0.159854,-0.15986 z m -6.879166,-13.49375 c 0.190995,-0.0764 0.419198,-0.067 0.507119,0.0209 0.08792,0.0879 -0.06835,0.15045 -0.347266,0.13897 -0.308226,-0.0127 -0.370919,-0.0754 -0.159853,-0.15986 z m 9.260416,0 c 0.190995,-0.0764 0.419198,-0.067 0.507119,0.0209 0.08792,0.0879 -0.06835,0.15045 -0.347266,0.13897 -0.308226,-0.0127 -0.370919,-0.0754 -0.159853,-0.15986 z"
         id="path988"
         inkscape:connector-curvature="0" />
      <path
         style="fill:#adadad;stroke-width:0.26458332"
         d="M 98.305223,202.10438 83.092545,186.8247 98.372231,202.03738 c 14.203209,14.14092 15.398449,15.34669 15.212679,15.34669 -0.0368,0 -6.91271,-6.87586 -15.279687,-15.27969 z m -64.607077,4.7802 c 0.190995,-0.0764 0.419198,-0.067 0.507119,0.0209 0.08792,0.0879 -0.06835,0.15045 -0.347266,0.13896 -0.308226,-0.0127 -0.370919,-0.0754 -0.159853,-0.15985 z m 1.058333,0 c 0.190995,-0.0764 0.419198,-0.067 0.507119,0.0209 0.08792,0.0879 -0.06835,0.15045 -0.347265,0.13896 -0.308227,-0.0127 -0.37092,-0.0754 -0.159854,-0.15985 z M 34.08352,193.38822 c 0.257431,-0.0671 0.614619,-0.0627 0.79375,0.01 0.17913,0.0725 -0.03149,0.12737 -0.468056,0.12197 -0.436563,-0.005 -0.583126,-0.0647 -0.325694,-0.13177 z M -5.1251046,156.90473 c 0.012695,-0.30822 0.075391,-0.37091 0.1598525,-0.15985 0.07643,0.191 0.067031,0.4192 -0.020889,0.50712 -0.087919,0.0879 -0.150453,-0.0684 -0.1389645,-0.34727 z m 92.3395796,-2.38125 c 0.0127,-0.30822 0.07539,-0.37091 0.159851,-0.15985 0.07643,0.191 0.06703,0.4192 -0.02088,0.50712 -0.08792,0.0879 -0.150453,-0.0683 -0.138964,-0.34727 z m -13.463058,-0.50711 c 0.0054,-0.43657 0.06469,-0.58313 0.131773,-0.3257 0.06708,0.25743 0.06267,0.61462 -0.0098,0.79375 -0.07248,0.17913 -0.127362,-0.0315 -0.12197,-0.46805 z m 13.463058,-0.55122 c 0.0127,-0.30822 0.07539,-0.37092 0.159851,-0.15985 0.07643,0.19099 0.06703,0.4192 -0.02088,0.50712 -0.08792,0.0879 -0.150453,-0.0684 -0.138964,-0.34727 z m -105.833329,-3.175 c 0.0127,-0.30822 0.07539,-0.37092 0.159853,-0.15985 0.07643,0.19099 0.06703,0.4192 -0.02089,0.50712 -0.08792,0.0879 -0.150452,-0.0684 -0.138964,-0.34727 z m 15.0603613,-33.54764 c 0,-0.0549 0.2083593,-0.2633 0.4630208,-0.46302 0.4196439,-0.3291 0.4290022,-0.31975 0.099895,0.0999 -0.3456434,0.44073 -0.5629155,0.58089 -0.5629158,0.36312 z M 37.137729,114.545 c 0.190995,-0.0764 0.419198,-0.067 0.507119,0.0209 0.08792,0.0879 -0.06835,0.15045 -0.347265,0.13897 -0.308227,-0.0127 -0.37092,-0.0754 -0.159854,-0.15986 z m -6.879166,-13.49375 c 0.190995,-0.0764 0.419198,-0.067 0.507119,0.0209 0.08792,0.0879 -0.06835,0.15045 -0.347266,0.13897 -0.308226,-0.0127 -0.370919,-0.0754 -0.159853,-0.15986 z"
         id="path986"
         inkscape:connector-curvature="0" />
      <path
         style="fill:#939393;stroke-width:0.26458332"
         d="m 82.562508,218.11168 -15.080379,-15.1474 15.147395,15.08038 c 14.080206,14.01791 15.266166,15.21441 15.080379,15.21441 -0.03686,0 -6.853187,-6.81633 -15.147395,-15.14739 z M 33.168979,193.39083 c 0.190995,-0.0764 0.419198,-0.067 0.507119,0.0209 0.08792,0.0879 -0.06835,0.15045 -0.347265,0.13896 -0.308227,-0.0127 -0.37092,-0.0754 -0.159854,-0.15985 z m -51.787833,-36.4861 c 0.0127,-0.30822 0.07539,-0.37091 0.159853,-0.15985 0.07643,0.191 0.06703,0.4192 -0.02089,0.50712 -0.08792,0.0879 -0.150452,-0.0684 -0.138964,-0.34727 z m 92.33958,-3.96875 c 0.0127,-0.30822 0.07539,-0.37091 0.15985,-0.15985 0.07643,0.191 0.06703,0.4192 -0.02088,0.50712 -0.08792,0.0879 -0.150453,-0.0684 -0.138965,-0.34727 z M 37.402313,101.05125 c 0.190994,-0.0764 0.419197,-0.067 0.507118,0.0209 0.08792,0.0879 -0.06835,0.15045 -0.347265,0.13897 -0.308227,-0.0127 -0.37092,-0.0754 -0.159853,-0.15986 z"
         id="path984"
         inkscape:connector-curvature="0" />
      <path
         style="fill:#6f6f6f;stroke-width:0.26458332"
         d="m 32.375229,193.39083 c 0.190995,-0.0764 0.419198,-0.067 0.507119,0.0209 0.08792,0.0879 -0.06835,0.15045 -0.347265,0.13896 -0.308227,-0.0127 -0.37092,-0.0754 -0.159854,-0.15985 z m 3.439584,0 c 0.190994,-0.0764 0.419197,-0.067 0.507119,0.0209 0.08792,0.0879 -0.06835,0.15045 -0.347266,0.13896 -0.308226,-0.0127 -0.370919,-0.0754 -0.159853,-0.15985 z m -40.4653879,-3.45728 c -0.3291076,-0.41964 -0.3197493,-0.429 0.099895,-0.0999 0.4407291,0.34564 0.5808871,0.56291 0.3631261,0.56291 -0.054942,0 -0.2633017,-0.20836 -0.4630208,-0.46302 z m 66.8410369,-8.00364 c 0.26339,-0.29105 0.538422,-0.52917 0.611183,-0.52917 0.07276,0 -0.08321,0.23812 -0.346599,0.52917 -0.26339,0.29104 -0.538422,0.52916 -0.611183,0.52916 -0.07276,0 0.08321,-0.23812 0.346599,-0.52916 z m -80.809316,-25.81893 c 0.0127,-0.30822 0.07539,-0.37091 0.159853,-0.15985 0.07643,0.191 0.06703,0.4192 -0.02089,0.50712 -0.08792,0.0879 -0.150452,-0.0683 -0.138964,-0.34727 z m 92.33958,-0.52916 c 0.0127,-0.30823 0.07539,-0.37092 0.15985,-0.15986 0.07643,0.191 0.06703,0.4192 -0.02088,0.50712 -0.08792,0.0879 -0.150453,-0.0684 -0.138965,-0.34726 z m 0,-3.43959 c 0.0127,-0.30822 0.07539,-0.37091 0.15985,-0.15985 0.07643,0.191 0.06703,0.4192 -0.02088,0.50712 -0.08792,0.0879 -0.150453,-0.0683 -0.138965,-0.34727 z m -92.33958,-0.52916 c 0.0127,-0.30823 0.07539,-0.37092 0.159853,-0.15986 0.07643,0.191 0.06703,0.4192 -0.02089,0.50712 -0.08792,0.0879 -0.150452,-0.0684 -0.138964,-0.34726 z M 5.9665068,126.26751 c 0,-0.0549 0.2083594,-0.2633 0.4630208,-0.46302 0.419644,-0.3291 0.4290023,-0.31975 0.099895,0.0999 -0.3456435,0.44073 -0.5629156,0.58089 -0.5629158,0.36312 z M 70.226503,115.05647 c -0.329107,-0.41964 -0.319749,-0.429 0.0999,-0.0999 0.44073,0.34564 0.580888,0.56291 0.363125,0.56291 -0.05494,0 -0.2633,-0.20836 -0.463021,-0.46302 z M 31.581479,101.05125 c 0.190995,-0.0764 0.419198,-0.067 0.507119,0.0209 0.08792,0.0879 -0.06835,0.15045 -0.347265,0.13897 -0.308227,-0.0127 -0.37092,-0.0754 -0.159854,-0.15986 z m 5.027084,0 c 0.190994,-0.0764 0.419197,-0.067 0.507118,0.0209 0.08792,0.0879 -0.06835,0.15045 -0.347265,0.13897 -0.308226,-0.0127 -0.370919,-0.0754 -0.159853,-0.15986 z"
         id="path982"
         inkscape:connector-curvature="0" />
      <path
         style="fill:#4e4e4e;stroke-width:0.26458332"
         d="m 38.460646,206.62 c 0.190995,-0.0764 0.419198,-0.067 0.507119,0.0209 0.08792,0.0879 -0.06835,0.15046 -0.347266,0.13897 -0.308226,-0.0127 -0.370919,-0.0754 -0.159853,-0.15985 z m -1.852083,-13.22917 c 0.190994,-0.0764 0.419197,-0.067 0.507118,0.0209 0.08792,0.0879 -0.06835,0.15045 -0.347265,0.13896 -0.308226,-0.0127 -0.370919,-0.0754 -0.159853,-0.15985 z M -3.856825,190.7273 c -0.3291075,-0.41964 -0.3197492,-0.429 0.099895,-0.0999 0.4407291,0.34564 0.5808871,0.56291 0.363126,0.56291 -0.054942,0 -0.2633017,-0.20836 -0.4630208,-0.46302 z m 90.806717,-32.49965 c 0.0127,-0.30823 0.07539,-0.37092 0.15985,-0.15985 0.07643,0.19099 0.06703,0.4192 -0.02088,0.50712 -0.08792,0.0879 -0.150453,-0.0684 -0.138965,-0.34727 z m -13.229166,-1.85208 c 0.0127,-0.30823 0.07539,-0.37092 0.15985,-0.15986 0.07643,0.191 0.06703,0.4192 -0.02088,0.50712 -0.08792,0.0879 -0.150453,-0.0683 -0.138965,-0.34726 z m -92.33958,-3.96875 c 0.0127,-0.30823 0.07539,-0.37092 0.159853,-0.15986 0.07643,0.191 0.06703,0.4192 -0.02089,0.50712 -0.08792,0.0879 -0.150452,-0.0683 -0.138964,-0.34726 z m 89.639107,-36.5566 c -0.329107,-0.41964 -0.319749,-0.429 0.0999,-0.0999 0.254662,0.19972 0.463021,0.40808 0.463021,0.46302 0,0.21776 -0.217273,0.0776 -0.562917,-0.36313 z M 32.375229,101.05125 c 0.190995,-0.0764 0.419198,-0.067 0.507119,0.0209 0.08792,0.0879 -0.06835,0.15045 -0.347265,0.13897 -0.308227,-0.0127 -0.37092,-0.0754 -0.159854,-0.15986 z m 3.439584,0 c 0.190994,-0.0764 0.419197,-0.067 0.507119,0.0209 0.08792,0.0879 -0.06835,0.15045 -0.347266,0.13897 -0.308226,-0.0127 -0.370919,-0.0754 -0.159853,-0.15986 z"
         id="path980"
         inkscape:connector-curvature="0" />
      <path
         style="fill:#2e2e2e;stroke-width:0.26458332"
         d="m 30.242026,206.62551 c 0.181901,-0.0734 0.479558,-0.0734 0.661459,0 0.181901,0.0734 0.03307,0.13345 -0.330729,0.13345 -0.363802,0 -0.512631,-0.06 -0.33073,-0.13345 z m 7.42487,-0.005 c 0.190995,-0.0764 0.419198,-0.067 0.507119,0.0209 0.08792,0.0879 -0.06835,0.15045 -0.347266,0.13897 -0.308226,-0.0127 -0.370919,-0.0754 -0.159853,-0.15985 z M -0.41724182,193.9023 c -0.32910752,-0.41964 -0.31974921,-0.429 0.0998947,-0.0999 0.25466145,0.19972 0.46302081,0.40808 0.46302081,0.46302 0,0.21776 -0.21727212,0.0776 -0.56291556,-0.36313 z M 31.052313,193.39083 c 0.190995,-0.0764 0.419198,-0.067 0.507119,0.0209 0.08792,0.0879 -0.06835,0.15045 -0.347266,0.13896 -0.308226,-0.0127 -0.370919,-0.0754 -0.159853,-0.15985 z m 6.35,0 c 0.190994,-0.0764 0.419197,-0.067 0.507118,0.0209 0.08792,0.0879 -0.06835,0.15045 -0.347265,0.13896 -0.308227,-0.0127 -0.37092,-0.0754 -0.159853,-0.15985 z M 8.8431731,184.3773 c -0.3291073,-0.41964 -0.319749,-0.429 0.099896,-0.0999 0.2546615,0.19972 0.4630209,0.40808 0.4630209,0.46302 0,0.21776 -0.2172732,0.0776 -0.5629169,-0.36313 z m 51.8920809,-0.95979 c 0,-0.0549 0.208359,-0.2633 0.463021,-0.46302 0.419645,-0.32911 0.429003,-0.31975 0.0999,0.0999 -0.345644,0.44072 -0.562917,0.58088 -0.562917,0.36312 z m 2.38125,-2.38125 c 0,-0.0549 0.208359,-0.2633 0.463021,-0.46302 0.419645,-0.32911 0.429003,-0.31975 0.0999,0.0999 -0.345644,0.44072 -0.562917,0.58088 -0.562917,0.36312 z M 3.8160913,179.35022 c -0.3291075,-0.41965 -0.3197492,-0.429 0.099895,-0.0999 0.2546614,0.19972 0.4630208,0.40808 0.4630208,0.46302 0,0.21777 -0.2172722,0.0776 -0.5629158,-0.36312 z M 86.949892,157.4339 c 0.0127,-0.30823 0.07539,-0.37092 0.15985,-0.15985 0.07643,0.19099 0.06703,0.4192 -0.02088,0.50712 -0.08792,0.0879 -0.150453,-0.0684 -0.138965,-0.34727 z m -13.229166,-0.26458 c 0.0127,-0.30823 0.07539,-0.37092 0.15985,-0.15986 0.07643,0.191 0.06703,0.4192 -0.02088,0.50712 -0.08792,0.0879 -0.150453,-0.0684 -0.138965,-0.34726 z m -92.33958,-2.38125 c 0.0127,-0.30823 0.07539,-0.37092 0.159853,-0.15986 0.07643,0.191 0.06703,0.4192 -0.02089,0.50712 -0.08792,0.0879 -0.150452,-0.0684 -0.138964,-0.34726 z m 13.2598583,-0.7717 c 0.00539,-0.43657 0.06469,-0.58313 0.1317736,-0.3257 0.067083,0.25743 0.062672,0.61462 -0.0098,0.79375 -0.072477,0.17913 -0.127363,-0.0315 -0.1219708,-0.46805 z m -13.2598583,-0.8158 c 0.0127,-0.30823 0.07539,-0.37092 0.159853,-0.15986 0.07643,0.191 0.06703,0.4192 -0.02089,0.50712 -0.08792,0.0879 -0.150452,-0.0684 -0.138964,-0.34726 z m 92.33958,-2.38125 c 0.0127,-0.30823 0.07539,-0.37092 0.15985,-0.15986 0.07643,0.191 0.06703,0.4192 -0.02088,0.50712 -0.08792,0.0879 -0.150453,-0.0684 -0.138965,-0.34726 z m 13.250052,-0.63941 c 0,-0.3638 0.06006,-0.51263 0.133453,-0.33073 0.0734,0.1819 0.0734,0.47956 0,0.66146 -0.0734,0.1819 -0.133453,0.0331 -0.133453,-0.33073 z M 4.9081735,127.32585 c 0,-0.055 0.2083594,-0.2633 0.4630208,-0.46302 0.419644,-0.32911 0.4290023,-0.31975 0.099895,0.0999 -0.3456435,0.44073 -0.5629156,0.58089 -0.5629156,0.36313 z m 2.1166666,-2.11667 c 0,-0.0549 0.2083593,-0.2633 0.4630208,-0.46302 0.419645,-0.32911 0.4290033,-0.31975 0.099895,0.0999 -0.3456434,0.44073 -0.5629155,0.58089 -0.5629155,0.36313 z M 74.195253,119.2898 c -0.329107,-0.41964 -0.319749,-0.429 0.0999,-0.0999 0.44073,0.34564 0.580888,0.56292 0.363125,0.56292 -0.05494,0 -0.2633,-0.20836 -0.463021,-0.46303 z m -79.3412457,-0.6952 c 0,-0.0549 0.2083594,-0.2633 0.4630208,-0.46302 0.419644,-0.32911 0.4290023,-0.31975 0.099895,0.0999 -0.3456434,0.44073 -0.5629156,0.58089 -0.5629156,0.36313 z m 3.4395832,-3.43959 c 0,-0.0549 0.2083594,-0.2633 0.4630208,-0.46302 0.41964397,-0.3291 0.42900229,-0.31975 0.099895,0.0999 -0.3456435,0.44073 -0.5629156,0.58089 -0.5629158,0.36312 z m 35.7899295,-0.8772 c 0.257431,-0.0671 0.614619,-0.0627 0.79375,0.01 0.17913,0.0725 -0.03149,0.12736 -0.468056,0.12197 -0.436563,-0.005 -0.583126,-0.0647 -0.325694,-0.13178 z m -0.914541,-13.22656 c 0.190995,-0.0764 0.419198,-0.067 0.507119,0.0209 0.08792,0.0879 -0.06835,0.15045 -0.347265,0.13897 -0.308227,-0.0127 -0.37092,-0.0754 -0.159854,-0.15986 z m 1.852084,0 c 0.190994,-0.0764 0.419198,-0.067 0.507119,0.0209 0.08792,0.0879 -0.06835,0.15045 -0.347266,0.13897 -0.308226,-0.0127 -0.370919,-0.0754 -0.159853,-0.15986 z"
         id="path978"
         inkscape:connector-curvature="0" />
      <path
         style="fill:#000000;stroke-width:0.26458332"
         d="m 104.11929,236.15571 c -0.80457,-0.0927 -2.23332,-0.50627 -3.175,-0.91896 -1.602265,-0.70219 -2.728083,-1.762 -17.539712,-16.51141 -8.705153,-8.66858 -16.23638,-16.31351 -16.736061,-16.98872 -0.499682,-0.67522 -1.179267,-1.94789 -1.510189,-2.82816 l -0.601676,-1.6005 -2.109136,1.35143 c -9.10913,5.83669 -21.192167,8.82535 -32.048621,7.92704 -13.265546,-1.09765 -24.1022864,-6.07962 -33.4598333,-15.38247 -5.6176785,-5.58484 -9.7022417,-12.04578 -12.3864277,-19.5928 -3.377885,-9.49747 -3.91528,-20.68273 -1.461867,-30.42709 5.315348,-21.11126 22.3463771,-36.41904 44.010624,-39.55749 3.824464,-0.55404 10.855448,-0.56342 14.456369,-0.0193 11.950155,1.80579 21.903948,6.75598 30.039049,14.93891 9.304308,9.35902 14.28464,20.19221 15.382467,33.45984 0.888884,10.74245 -2.081273,22.90909 -7.761059,31.79156 -0.651359,1.01865 -1.26664,1.98979 -1.367293,2.15809 -0.119972,0.20061 0.331301,0.46776 1.310309,0.7757 0.82132,0.25834 2.160921,0.97511 2.976893,1.59282 0.815973,0.61772 8.471263,8.1277 17.011758,16.68884 14.209456,14.24382 15.596516,15.71176 16.332936,17.28545 3.80357,8.12805 -2.46989,16.88232 -11.36353,15.8572 z m -62.630136,-43.2153 c 12.414165,-2.30715 23.054354,-10.41999 28.494345,-21.72613 2.458522,-5.10964 3.665072,-9.98448 3.909031,-15.79373 0.699103,-16.64729 -9.26978,-31.98062 -24.862548,-38.24157 -12.374472,-4.96871 -26.69579,-3.25465 -37.690568,4.51102 -2.9627199,2.09258 -7.1639842,6.29385 -9.2565675,9.25657 -11.2767624,15.96584 -9.3387443,37.71921 4.5702834,51.29933 6.1782661,6.03217 13.3352871,9.58239 22.0675421,10.94653 2.900842,0.45316 9.695701,0.31905 12.768482,-0.25202 z"
         id="path976"
         inkscape:connector-curvature="0" />
    </g>
  </g>
</svg>
